# This file uses centimeters as units for non-parametric coordinates.

v 2.500001 -15.000000 -4.330127
v -2.499999 -15.000000 -4.330128
v -5.000000 -15.000000 -0.000001
v -2.500000 -15.000000 4.330127
v 2.500000 -15.000000 4.330127
v 5.000000 -15.000000 0.000000
v 2.187501 -11.250000 -3.788861
v -2.187499 -11.250000 -3.788862
v -4.375000 -11.250000 -0.000001
v -2.187500 -11.250000 3.788861
v 2.187500 -11.250000 3.788861
v 4.375000 -11.250000 0.000000
v 1.875001 -7.500000 -3.247595
v -1.874999 -7.500000 -3.247596
v -3.750000 -7.500000 -0.000001
v -1.875000 -7.500000 3.247595
v 1.875000 -7.500000 3.247595
v 3.750000 -7.500000 0.000000
v 1.562501 -3.750000 -2.706329
v -1.562500 -3.750000 -2.706330
v -3.125000 -3.750000 -0.000000
v -1.562500 -3.750000 2.706329
v 1.562500 -3.750000 2.706330
v 3.125000 -3.750000 0.000000
v 1.250001 0.000000 -2.165063
v -1.250000 0.000000 -2.165064
v -2.500000 0.000000 -0.000000
v -1.250000 0.000000 2.165063
v 1.250000 0.000000 2.165064
v 2.500000 0.000000 0.000000
v 0.937500 3.750000 -1.623798
v -0.937500 3.750000 -1.623798
v -1.875000 3.750000 -0.000000
v -0.937500 3.750000 1.623798
v 0.937500 3.750000 1.623798
v 1.875000 3.750000 0.000000
v 0.625000 7.500000 -1.082532
v -0.625000 7.500000 -1.082532
v -1.250000 7.500000 -0.000000
v -0.625000 7.500000 1.082532
v 0.625000 7.500000 1.082532
v 1.250000 7.500000 0.000000
v 0.312500 11.250000 -0.541266
v -0.312500 11.250000 -0.541266
v -0.625000 11.250000 -0.000000
v -0.312500 11.250000 0.541266
v 0.312500 11.250000 0.541266
v 0.625000 11.250000 0.000000
v 0.000000 15.000000 0.000000
vn 0.493197 0.164399 -0.854242
vn -0.493197 0.164399 -0.854242
vn -0.493197 0.164399 -0.854242
vn 0.493197 0.164399 -0.854242
vn -0.986394 0.164399 -0.000000
vn -0.986394 0.164399 -0.000000
vn -0.493197 0.164399 0.854242
vn -0.493197 0.164399 0.854242
vn 0.493197 0.164399 0.854242
vn 0.493197 0.164399 0.854242
vn 0.986394 0.164399 0.000000
vn 0.986394 0.164399 0.000000
vn -0.493197 0.164399 -0.854242
vn 0.493197 0.164399 -0.854242
vn -0.986394 0.164399 -0.000000
vn -0.493197 0.164399 0.854242
vn 0.493197 0.164399 0.854242
vn 0.986394 0.164399 0.000000
vn -0.493197 0.164399 -0.854242
vn 0.493197 0.164399 -0.854242
vn -0.986394 0.164399 -0.000000
vn -0.493197 0.164399 0.854242
vn 0.493197 0.164399 0.854242
vn 0.986394 0.164399 0.000000
vn -0.493197 0.164399 -0.854242
vn 0.493197 0.164399 -0.854242
vn -0.986394 0.164399 -0.000000
vn -0.493197 0.164399 0.854242
vn 0.493197 0.164399 0.854242
vn 0.986394 0.164399 0.000000
vn -0.493197 0.164399 -0.854242
vn 0.493197 0.164399 -0.854242
vn -0.986394 0.164399 -0.000000
vn -0.493197 0.164399 0.854242
vn 0.493197 0.164399 0.854242
vn 0.986394 0.164399 0.000000
vn -0.493197 0.164399 -0.854242
vn 0.493197 0.164399 -0.854242
vn -0.986394 0.164399 -0.000000
vn -0.493197 0.164399 0.854242
vn 0.493197 0.164399 0.854242
vn 0.986394 0.164399 0.000000
vn -0.493197 0.164399 -0.854242
vn 0.493197 0.164399 -0.854242
vn -0.986394 0.164399 -0.000000
vn -0.493197 0.164399 0.854242
vn 0.493197 0.164399 0.854242
vn 0.986394 0.164399 0.000000
vn 0.000000 -1.000000 0.000000
vn 0.000000 -1.000000 0.000000
vn 0.000000 -1.000000 0.000000
vn 0.000000 -1.000000 0.000000
vn 0.000000 -1.000000 0.000000
vn 0.000000 -1.000000 0.000000
vn 0.000000 0.142857 -0.989743
vn -0.857143 0.142857 -0.494872
vn -0.857143 0.142857 0.494872
vn -0.000000 0.142857 0.989743
vn 0.857143 0.142857 0.494872
vn 0.857143 0.142857 -0.494872
f 1//1 2//2 8//3 7//4
f 2//2 3//5 9//6 8//3
f 3//5 4//7 10//8 9//6
f 4//7 5//9 11//10 10//8
f 5//9 6//11 12//12 11//10
f 6//11 1//1 7//4 12//12
f 7//4 8//3 14//13 13//14
f 8//3 9//6 15//15 14//13
f 9//6 10//8 16//16 15//15
f 10//8 11//10 17//17 16//16
f 11//10 12//12 18//18 17//17
f 12//12 7//4 13//14 18//18
f 13//14 14//13 20//19 19//20
f 14//13 15//15 21//21 20//19
f 15//15 16//16 22//22 21//21
f 16//16 17//17 23//23 22//22
f 17//17 18//18 24//24 23//23
f 18//18 13//14 19//20 24//24
f 19//20 20//19 26//25 25//26
f 20//19 21//21 27//27 26//25
f 21//21 22//22 28//28 27//27
f 22//22 23//23 29//29 28//28
f 23//23 24//24 30//30 29//29
f 24//24 19//20 25//26 30//30
f 25//26 26//25 32//31 31//32
f 26//25 27//27 33//33 32//31
f 27//27 28//28 34//34 33//33
f 28//28 29//29 35//35 34//34
f 29//29 30//30 36//36 35//35
f 30//30 25//26 31//32 36//36
f 31//32 32//31 38//37 37//38
f 32//31 33//33 39//39 38//37
f 33//33 34//34 40//40 39//39
f 34//34 35//35 41//41 40//40
f 35//35 36//36 42//42 41//41
f 36//36 31//32 37//38 42//42
f 37//38 38//37 44//43 43//44
f 38//37 39//39 45//45 44//43
f 39//39 40//40 46//46 45//45
f 40//40 41//41 47//47 46//46
f 41//41 42//42 48//48 47//47
f 42//42 37//38 43//44 48//48
f 1//49 6//50 5//51 4//52 3//53 2//54
f 43//44 44//43 49//55
f 44//43 45//45 49//56
f 45//45 46//46 49//57
f 46//46 47//47 49//58
f 47//47 48//48 49//59
f 48//48 43//44 49//60
