# This file uses centimeters as units for non-parametric coordinates.

v 0.965925 0.258819 -2.500000
v 0.866025 0.500000 -2.500000
v 0.707106 0.707106 -2.500000
v 0.500000 0.866025 -2.500000
v 0.258819 0.965925 -2.500000
v 0.000000 0.999999 -2.500000
v -0.258819 0.965925 -2.500000
v -0.500000 0.866025 -2.500000
v -0.707106 0.707107 -2.500000
v -0.866025 0.500000 -2.500000
v -0.965926 0.258819 -2.500000
v -1.000000 0.000000 -2.500000
v -0.965926 -0.258819 -2.500000
v -0.866025 -0.500000 -2.500000
v -0.707107 -0.707107 -2.500000
v -0.500000 -0.866025 -2.500000
v -0.258819 -0.965926 -2.500000
v -0.000000 -1.000000 -2.500000
v 0.258819 -0.965926 -2.500000
v 0.500000 -0.866025 -2.500000
v 0.707107 -0.707107 -2.500000
v 0.866025 -0.500000 -2.500000
v 0.965926 -0.258819 -2.500000
v 1.000000 -0.000000 -2.500000
v 0.724444 0.194114 -1.250000
v 0.649519 0.375000 -1.250000
v 0.530330 0.530330 -1.250000
v 0.375000 0.649519 -1.250000
v 0.194114 0.724444 -1.250000
v 0.000000 0.750000 -1.250000
v -0.194114 0.724444 -1.250000
v -0.375000 0.649519 -1.250000
v -0.530330 0.530330 -1.250000
v -0.649519 0.375000 -1.250000
v -0.724444 0.194114 -1.250000
v -0.750000 0.000000 -1.250000
v -0.724444 -0.194114 -1.250000
v -0.649519 -0.375000 -1.250000
v -0.530330 -0.530330 -1.250000
v -0.375000 -0.649519 -1.250000
v -0.194114 -0.724444 -1.250000
v -0.000000 -0.750000 -1.250000
v 0.194114 -0.724444 -1.250000
v 0.375000 -0.649519 -1.250000
v 0.530330 -0.530330 -1.250000
v 0.649519 -0.375000 -1.250000
v 0.724444 -0.194114 -1.250000
v 0.750000 -0.000000 -1.250000
v 0.482963 0.129409 -0.000000
v 0.433012 0.250000 -0.000000
v 0.353553 0.353553 -0.000000
v 0.250000 0.433012 -0.000000
v 0.129410 0.482963 -0.000000
v 0.000000 0.500000 -0.000000
v -0.129409 0.482963 -0.000000
v -0.250000 0.433013 -0.000000
v -0.353553 0.353553 -0.000000
v -0.433013 0.250000 -0.000000
v -0.482963 0.129410 -0.000000
v -0.500000 0.000000 -0.000000
v -0.482963 -0.129409 0.000000
v -0.433013 -0.250000 0.000000
v -0.353553 -0.353553 0.000000
v -0.250000 -0.433013 0.000000
v -0.129410 -0.482963 0.000000
v -0.000000 -0.500000 0.000000
v 0.129409 -0.482963 0.000000
v 0.250000 -0.433013 0.000000
v 0.353553 -0.353553 0.000000
v 0.433013 -0.250000 0.000000
v 0.482963 -0.129410 0.000000
v 0.500000 0.000000 0.000000
v 0.241481 0.064705 1.250000
v 0.216506 0.125000 1.250000
v 0.176777 0.176777 1.250000
v 0.125000 0.216506 1.250000
v 0.064705 0.241481 1.250000
v 0.000000 0.250000 1.250000
v -0.064705 0.241481 1.250000
v -0.125000 0.216506 1.250000
v -0.176777 0.176777 1.250000
v -0.216506 0.125000 1.250000
v -0.241481 0.064705 1.250000
v -0.250000 0.000000 1.250000
v -0.241481 -0.064705 1.250000
v -0.216506 -0.125000 1.250000
v -0.176777 -0.176777 1.250000
v -0.125000 -0.216506 1.250000
v -0.064705 -0.241481 1.250000
v -0.000000 -0.250000 1.250000
v 0.064705 -0.241481 1.250000
v 0.125000 -0.216506 1.250000
v 0.176777 -0.176777 1.250000
v 0.216506 -0.125000 1.250000
v 0.241481 -0.064705 1.250000
v 0.250000 0.000000 1.250000
v 0.000000 0.000000 2.500000
vn 0.947168 0.253794 0.196116
vn 0.849208 0.490290 0.196116
vn 0.849208 0.490290 0.196116
vn 0.947168 0.253794 0.196116
vn 0.693375 0.693375 0.196116
vn 0.693375 0.693375 0.196116
vn 0.490290 0.849208 0.196116
vn 0.490290 0.849208 0.196116
vn 0.253793 0.947168 0.196116
vn 0.253793 0.947168 0.196116
vn 0.000000 0.980581 0.196116
vn 0.000000 0.980581 0.196116
vn -0.253793 0.947168 0.196116
vn -0.253793 0.947168 0.196116
vn -0.490290 0.849208 0.196116
vn -0.490290 0.849208 0.196116
vn -0.693375 0.693375 0.196116
vn -0.693375 0.693375 0.196116
vn -0.849208 0.490290 0.196116
vn -0.849208 0.490290 0.196116
vn -0.947168 0.253793 0.196116
vn -0.947168 0.253793 0.196116
vn -0.980581 0.000000 0.196116
vn -0.980581 0.000000 0.196116
vn -0.947168 -0.253793 0.196116
vn -0.947168 -0.253793 0.196116
vn -0.849208 -0.490290 0.196116
vn -0.849208 -0.490290 0.196116
vn -0.693375 -0.693375 0.196116
vn -0.693375 -0.693375 0.196116
vn -0.490290 -0.849208 0.196116
vn -0.490290 -0.849208 0.196116
vn -0.253793 -0.947168 0.196116
vn -0.253793 -0.947168 0.196116
vn -0.000000 -0.980581 0.196116
vn -0.000000 -0.980581 0.196116
vn 0.253793 -0.947168 0.196116
vn 0.253793 -0.947168 0.196116
vn 0.490290 -0.849208 0.196116
vn 0.490290 -0.849208 0.196116
vn 0.693375 -0.693375 0.196116
vn 0.693375 -0.693375 0.196116
vn 0.849208 -0.490290 0.196116
vn 0.849208 -0.490290 0.196116
vn 0.947168 -0.253793 0.196116
vn 0.947168 -0.253793 0.196116
vn 0.980581 0.000001 0.196116
vn 0.980581 0.000001 0.196116
vn 0.849208 0.490290 0.196116
vn 0.947168 0.253794 0.196116
vn 0.693375 0.693375 0.196116
vn 0.490290 0.849208 0.196116
vn 0.253793 0.947168 0.196116
vn 0.000000 0.980581 0.196116
vn -0.253793 0.947168 0.196116
vn -0.490290 0.849208 0.196116
vn -0.693375 0.693376 0.196116
vn -0.849208 0.490291 0.196116
vn -0.947168 0.253793 0.196116
vn -0.980581 0.000000 0.196116
vn -0.947168 -0.253793 0.196116
vn -0.849208 -0.490290 0.196116
vn -0.693375 -0.693375 0.196116
vn -0.490290 -0.849208 0.196116
vn -0.253793 -0.947168 0.196116
vn -0.000000 -0.980581 0.196116
vn 0.253793 -0.947168 0.196116
vn 0.490290 -0.849208 0.196116
vn 0.693375 -0.693375 0.196116
vn 0.849208 -0.490290 0.196116
vn 0.947168 -0.253793 0.196116
vn 0.980581 0.000001 0.196116
vn 0.849208 0.490290 0.196116
vn 0.947168 0.253794 0.196116
vn 0.693375 0.693375 0.196116
vn 0.490291 0.849208 0.196116
vn 0.253793 0.947168 0.196116
vn 0.000000 0.980581 0.196116
vn -0.253793 0.947168 0.196116
vn -0.490290 0.849208 0.196116
vn -0.693375 0.693376 0.196116
vn -0.849208 0.490291 0.196116
vn -0.947168 0.253793 0.196116
vn -0.980581 0.000000 0.196116
vn -0.947168 -0.253793 0.196116
vn -0.849208 -0.490290 0.196116
vn -0.693375 -0.693375 0.196116
vn -0.490290 -0.849208 0.196116
vn -0.253793 -0.947168 0.196116
vn -0.000000 -0.980581 0.196116
vn 0.253793 -0.947168 0.196116
vn 0.490290 -0.849208 0.196116
vn 0.693375 -0.693375 0.196116
vn 0.849208 -0.490290 0.196116
vn 0.947168 -0.253793 0.196116
vn 0.980581 0.000001 0.196116
vn -0.000000 0.000000 -1.000000
vn -0.000000 0.000000 -1.000000
vn -0.000000 0.000000 -1.000000
vn -0.000000 0.000000 -1.000000
vn -0.000000 0.000000 -1.000000
vn -0.000000 0.000000 -1.000000
vn -0.000000 0.000000 -1.000000
vn -0.000000 0.000000 -1.000000
vn -0.000000 0.000000 -1.000000
vn -0.000000 0.000000 -1.000000
vn -0.000000 0.000000 -1.000000
vn -0.000000 0.000000 -1.000000
vn -0.000000 0.000000 -1.000000
vn -0.000000 0.000000 -1.000000
vn -0.000000 0.000000 -1.000000
vn -0.000000 0.000000 -1.000000
vn -0.000000 0.000000 -1.000000
vn -0.000000 0.000000 -1.000000
vn -0.000000 0.000000 -1.000000
vn -0.000000 0.000000 -1.000000
vn -0.000000 0.000000 -1.000000
vn -0.000000 0.000000 -1.000000
vn -0.000000 0.000000 -1.000000
vn -0.000000 0.000000 -1.000000
vn -0.000027 -0.000035 1.000000
f 1//1 2//2 26//3 25//4
f 2//2 3//5 27//6 26//3
f 3//5 4//7 28//8 27//6
f 4//7 5//9 29//10 28//8
f 5//9 6//11 30//12 29//10
f 6//11 7//13 31//14 30//12
f 7//13 8//15 32//16 31//14
f 8//15 9//17 33//18 32//16
f 9//17 10//19 34//20 33//18
f 10//19 11//21 35//22 34//20
f 11//21 12//23 36//24 35//22
f 12//23 13//25 37//26 36//24
f 13//25 14//27 38//28 37//26
f 14//27 15//29 39//30 38//28
f 15//29 16//31 40//32 39//30
f 16//31 17//33 41//34 40//32
f 17//33 18//35 42//36 41//34
f 18//35 19//37 43//38 42//36
f 19//37 20//39 44//40 43//38
f 20//39 21//41 45//42 44//40
f 21//41 22//43 46//44 45//42
f 22//43 23//45 47//46 46//44
f 23//45 24//47 48//48 47//46
f 24//47 1//1 25//4 48//48
f 25//4 26//3 50//49 49//50
f 26//3 27//6 51//51 50//49
f 27//6 28//8 52//52 51//51
f 28//8 29//10 53//53 52//52
f 29//10 30//12 54//54 53//53
f 30//12 31//14 55//55 54//54
f 31//14 32//16 56//56 55//55
f 32//16 33//18 57//57 56//56
f 33//18 34//20 58//58 57//57
f 34//20 35//22 59//59 58//58
f 35//22 36//24 60//60 59//59
f 36//24 37//26 61//61 60//60
f 37//26 38//28 62//62 61//61
f 38//28 39//30 63//63 62//62
f 39//30 40//32 64//64 63//63
f 40//32 41//34 65//65 64//64
f 41//34 42//36 66//66 65//65
f 42//36 43//38 67//67 66//66
f 43//38 44//40 68//68 67//67
f 44//40 45//42 69//69 68//68
f 45//42 46//44 70//70 69//69
f 46//44 47//46 71//71 70//70
f 47//46 48//48 72//72 71//71
f 48//48 25//4 49//50 72//72
f 49//50 50//49 74//73 73//74
f 50//49 51//51 75//75 74//73
f 51//51 52//52 76//76 75//75
f 52//52 53//53 77//77 76//76
f 53//53 54//54 78//78 77//77
f 54//54 55//55 79//79 78//78
f 55//55 56//56 80//80 79//79
f 56//56 57//57 81//81 80//80
f 57//57 58//58 82//82 81//81
f 58//58 59//59 83//83 82//82
f 59//59 60//60 84//84 83//83
f 60//60 61//61 85//85 84//84
f 61//61 62//62 86//86 85//85
f 62//62 63//63 87//87 86//86
f 63//63 64//64 88//88 87//87
f 64//64 65//65 89//89 88//88
f 65//65 66//66 90//90 89//89
f 66//66 67//67 91//91 90//90
f 67//67 68//68 92//92 91//91
f 68//68 69//69 93//93 92//92
f 69//69 70//70 94//94 93//93
f 70//70 71//71 95//95 94//94
f 71//71 72//72 96//96 95//95
f 72//72 49//50 73//74 96//96
f 73//74 74//73 97//11  97//11
f 74//73 75//75 97//121 97//121
f 75//75 76//76 97//121 97//121
f 76//76 77//77 97//121 97//121
f 77//77 78//78 97//121 97//121
f 78//78 79//79 97//121 97//121
f 79//79 80//80 97//121 97//121
f 80//80 81//81 97//121 97//121
f 81//81 82//82 97//121 97//121
f 82//82 83//83 97//121 97//121
f 83//83 84//84 97//121 97//121
f 84//84 85//85 97//121 97//121
f 85//85 86//86 97//121 97//121
f 86//86 87//87 97//121 97//121
f 87//87 88//88 97//121 97//121
f 88//88 89//89 97//121 97//121
f 89//89 90//90 97//121 97//121
f 90//90 91//91 97//121 97//121
f 91//91 92//92 97//121 97//121
f 92//92 93//93 97//121 97//121
f 93//93 94//94 97//121 97//121
f 94//94 95//95 97//121 97//121
f 95//95 96//96 97//121 97//121
f 96//96 73//74 97//121 97//121
