# This file uses centimeters as units for non-parametric coordinates.

v 0.491948 0.057817 0.001240
v 0.516512 0.040594 -0.028760
v 0.541075 0.023370 0.001240
v 0.516512 0.040594 0.031240
v 0.308765 -0.220849 0.001240
v 0.325140 -0.232331 -0.018760
v 0.341516 -0.243814 0.001240
v 0.325140 -0.232331 0.021240
v 0.125581 -0.499515 0.001240
v 0.133768 -0.505256 -0.008760
v 0.141956 -0.510997 0.001240
v 0.133768 -0.505256 0.011240
v -0.057603 -0.778181 0.001240
vn -0.835622 0.549305 -0.000000
vn -0.017216 -0.024552 -0.999550
vn -0.017216 -0.024552 -0.999550
vn -0.835622 0.549305 0.000000
vn 0.801191 -0.598409 -0.000000
vn 0.801191 -0.598409 -0.000000
vn -0.017216 -0.024552 0.999550
vn -0.017216 -0.024552 0.999550
vn -0.017216 -0.024552 -0.999550
vn -0.835622 0.549305 0.000000
vn 0.801191 -0.598409 -0.000000
vn -0.017216 -0.024552 0.999550
vn 0.574115 0.818775 -0.000000
vn 0.574115 0.818775 -0.000000
vn 0.574115 0.818775 -0.000000
vn 0.574115 0.818775 -0.000000
vn -0.591007 0.388504 -0.706948
vn 0.566655 -0.423234 -0.706948
vn 0.566655 -0.423234 0.706948
vn -0.591007 0.388504 0.706948
f 1//1 2//2 6//3 5//4
f 2//2 3//5 7//6 6//3
f 3//5 4//7 8//8 7//6
f 4//7 1//1 5//4 8//8
f 5//4 6//3 10//9 9//10
f 6//3 7//6 11//11 10//9
f 7//6 8//8 12//12 11//11
f 8//8 5//4 9//10 12//12
f 1//13 4//14 3//15 2//16
f 9//10 10//9 13//17
f 10//9 11//11 13//18
f 11//11 12//12 13//19
f 12//12 9//10 13//20
v 0.445123 0.048005 0.001240
v 0.466785 0.027250 -0.028760
v 0.488447 0.006495 0.001240
v 0.466785 0.027250 0.031240
v 0.221736 -0.199602 0.001240
v 0.236178 -0.213439 -0.018760
v 0.250619 -0.227275 0.001240
v 0.236178 -0.213439 0.021240
v -0.001651 -0.447209 0.001240
v 0.005570 -0.454128 -0.008760
v 0.012790 -0.461046 0.001240
v 0.005570 -0.454128 0.011240
v -0.225038 -0.694817 0.001240
vn -0.742487 0.669860 -0.000000
vn -0.020745 -0.021652 -0.999550
vn -0.020745 -0.021652 -0.999550
vn -0.742487 0.669860 0.000000
vn 0.700997 -0.713165 -0.000000
vn 0.700997 -0.713165 -0.000000
vn -0.020745 -0.021652 0.999550
vn -0.020745 -0.021652 0.999550
vn -0.020745 -0.021652 -0.999550
vn -0.742487 0.669860 0.000000
vn 0.700997 -0.713165 -0.000000
vn -0.020745 -0.021652 0.999550
vn 0.691823 0.722067 -0.000000
vn 0.691823 0.722067 -0.000000
vn 0.691823 0.722067 -0.000000
vn 0.691823 0.722067 -0.000000
vn -0.525136 0.473769 -0.706948
vn 0.495791 -0.504397 -0.706948
vn 0.495791 -0.504397 0.706948
vn -0.525136 0.473769 0.706948
f 14//21 15//22 19//23 18//24
f 15//22 16//25 20//26 19//23
f 16//25 17//27 21//28 20//26
f 17//27 14//21 18//24 21//28
f 18//24 19//23 23//29 22//30
f 19//23 20//26 24//31 23//29
f 20//26 21//28 25//32 24//31
f 21//28 18//24 22//30 25//32
f 14//33 17//34 16//35 15//36
f 22//30 23//29 26//37
f 23//29 24//31 26//38
f 24//31 25//32 26//39
f 25//32 22//30 26//40
v 0.458137 0.045384 0.001240
v 0.474808 0.020442 -0.028760
v 0.491479 -0.004499 0.001240
v 0.474808 0.020442 0.031240
v 0.186565 -0.148161 0.001240
v 0.197679 -0.164789 -0.018760
v 0.208793 -0.181417 0.001240
v 0.197679 -0.164789 0.021240
v -0.085007 -0.341706 0.001240
v -0.079450 -0.350020 -0.008760
v -0.073893 -0.358334 0.001240
v -0.079450 -0.350020 0.011240
v -0.356579 -0.535251 0.001240
vn -0.580374 0.814350 -0.000000
vn -0.024930 -0.016663 -0.999550
vn -0.024930 -0.016663 -0.999550
vn -0.580374 0.814350 0.000000
vn 0.530513 -0.847677 -0.000000
vn 0.530513 -0.847677 -0.000000
vn -0.024930 -0.016663 0.999550
vn -0.024930 -0.016663 0.999550
vn -0.024930 -0.016663 -0.999550
vn -0.580374 0.814350 0.000000
vn 0.530513 -0.847677 -0.000000
vn -0.024930 -0.016663 0.999550
vn 0.831387 0.555693 -0.000000
vn 0.831387 0.555693 -0.000000
vn 0.831387 0.555693 -0.000000
vn 0.831387 0.555693 -0.000000
vn -0.410479 0.575962 -0.706948
vn 0.375214 -0.599533 -0.706948
vn 0.375214 -0.599533 0.706948
vn -0.410479 0.575962 0.706948
f 27//41 28//42 32//43 31//44
f 28//42 29//45 33//46 32//43
f 29//45 30//47 34//48 33//46
f 30//47 27//41 31//44 34//48
f 31//44 32//43 36//49 35//50
f 32//43 33//46 37//51 36//49
f 33//46 34//48 38//52 37//51
f 34//48 31//44 35//50 38//52
f 27//53 30//54 29//55 28//56
f 35//50 36//49 39//57
f 36//49 37//51 39//58
f 37//51 38//52 39//59
f 38//52 35//50 39//60
v 0.517617 0.042672 0.001240
v 0.497427 0.020481 -0.028760
v 0.477238 -0.001709 0.001240
v 0.497427 0.020481 0.031240
v 0.264331 0.259599 0.001240
v 0.250871 0.244805 -0.018760
v 0.237412 0.230012 0.001240
v 0.250871 0.244805 0.021240
v 0.011045 0.476526 0.001240
v 0.004315 0.469129 -0.008760
v -0.002415 0.461732 0.001240
v 0.004315 0.469129 0.011240
v -0.242241 0.693453 0.001240
vn 0.650488 0.759516 -0.000000
vn -0.022180 0.020180 -0.999550
vn -0.022180 0.020180 -0.999550
vn 0.650488 0.759516 0.000000
vn -0.694849 -0.719156 -0.000000
vn -0.694849 -0.719156 -0.000000
vn -0.022180 0.020180 0.999550
vn -0.022180 0.020180 0.999550
vn -0.022180 0.020180 -0.999550
vn 0.650488 0.759516 0.000000
vn -0.694849 -0.719156 -0.000000
vn -0.022180 0.020180 0.999550
vn 0.739669 -0.672971 -0.000000
vn 0.739669 -0.672971 -0.000000
vn 0.739669 -0.672971 -0.000000
vn 0.739669 -0.672971 -0.000000
vn 0.460068 0.537180 -0.706948
vn -0.491443 -0.508634 -0.706948
vn -0.491443 -0.508635 0.706948
vn 0.460068 0.537180 0.706948
f 40//61 41//62 45//63 44//64
f 41//62 42//65 46//66 45//63
f 42//65 43//67 47//68 46//66
f 43//67 40//61 44//64 47//68
f 44//64 45//63 49//69 48//70
f 45//63 46//66 50//71 49//69
f 46//66 47//68 51//72 50//71
f 47//68 44//64 48//70 51//72
f 40//73 43//74 42//75 41//76
f 48//70 49//69 52//77
f 49//69 50//71 52//78
f 50//71 51//72 52//79
f 51//72 48//70 52//80
v 0.507213 0.036246 0.001240
v 0.491038 0.010980 -0.028760
v 0.474862 -0.014286 0.001240
v 0.491038 0.010980 0.031240
v 0.221092 0.207551 0.001240
v 0.210308 0.190707 -0.018760
v 0.199524 0.173864 0.001240
v 0.210308 0.190707 0.021240
v -0.065030 0.378857 0.001240
v -0.070422 0.370435 -0.008760
v -0.075814 0.362013 0.001240
v -0.070422 0.370435 0.011240
v -0.351151 0.550162 0.001240
vn 0.513686 0.857979 -0.000000
vn -0.025254 0.016168 -0.999550
vn -0.025254 0.016168 -0.999550
vn 0.513686 0.857979 0.000000
vn -0.564194 -0.825642 -0.000000
vn -0.564194 -0.825642 -0.000000
vn -0.025254 0.016168 0.999550
vn -0.025254 0.016168 0.999550
vn -0.025254 0.016168 -0.999550
vn 0.513686 0.857979 0.000000
vn -0.564194 -0.825642 -0.000000
vn -0.025254 0.016168 0.999550
vn 0.842189 -0.539182 -0.000000
vn 0.842189 -0.539182 -0.000000
vn 0.842189 -0.539182 -0.000000
vn 0.842189 -0.539182 -0.000000
vn 0.363312 0.606819 -0.706948
vn -0.399035 -0.583948 -0.706948
vn -0.399035 -0.583948 0.706948
vn 0.363312 0.606819 0.706948
f 53//81 54//82 58//83 57//84
f 54//82 55//85 59//86 58//83
f 55//85 56//87 60//88 59//86
f 56//87 53//81 57//84 60//88
f 57//84 58//83 62//89 61//90
f 58//83 59//86 63//91 62//89
f 59//86 60//88 64//92 63//91
f 60//88 57//84 61//90 64//92
f 53//93 56//94 55//95 54//96
f 61//90 62//89 65//97
f 62//89 63//91 65//98
f 63//91 64//92 65//99
f 64//92 61//90 65//100
v 0.513000 0.034177 0.001240
v 0.501432 0.006497 -0.028760
v 0.489864 -0.021183 0.001240
v 0.501432 0.006497 0.031240
v 0.201587 0.153480 0.001240
v 0.193875 0.135027 -0.018760
v 0.186163 0.116573 0.001240
v 0.193875 0.135027 0.021240
v -0.109826 0.272783 0.001240
v -0.113682 0.263556 -0.008760
v -0.117537 0.254330 0.001240
v -0.113682 0.263556 0.011240
v -0.421238 0.392086 0.001240
vn 0.357748 0.933818 -0.000000
vn -0.027668 0.011563 -0.999550
vn -0.027668 0.011563 -0.999550
vn 0.357748 0.933818 0.000000
vn -0.413083 -0.910693 -0.000000
vn -0.413083 -0.910693 -0.000000
vn -0.027668 0.011562 0.999550
vn -0.027668 0.011562 0.999550
vn -0.027668 0.011563 -0.999550
vn 0.357748 0.933818 0.000000
vn -0.413083 -0.910693 -0.000000
vn -0.027668 0.011562 0.999550
vn 0.922671 -0.385589 -0.000000
vn 0.922671 -0.385589 -0.000000
vn 0.922671 -0.385589 -0.000000
vn 0.922671 -0.385589 -0.000000
vn 0.253023 0.660458 -0.706948
vn -0.292160 -0.644102 -0.706948
vn -0.292160 -0.644102 0.706948
vn 0.253023 0.660458 0.706948
f 66//101 67//102 71//103 70//104
f 67//102 68//105 72//106 71//103
f 68//105 69//107 73//108 72//106
f 69//107 66//101 70//104 73//108
f 70//104 71//103 75//109 74//110
f 71//103 72//106 76//111 75//109
f 72//106 73//108 77//112 76//111
f 73//108 70//104 74//110 77//112
f 66//113 69//114 68//115 67//116
f 74//110 75//109 78//117
f 75//109 76//111 78//118
f 76//111 77//112 78//119
f 77//112 74//110 78//120
v 0.474688 0.039432 0.001240
v 0.469000 0.009976 -0.028760
v 0.463312 -0.019480 0.001240
v 0.469000 0.009976 0.031240
v 0.145505 0.092816 0.001240
v 0.141713 0.073179 -0.018760
v 0.137921 0.053542 0.001240
v 0.141713 0.073179 0.021240
v -0.183677 0.146201 0.001240
v -0.185573 0.136382 -0.008760
v -0.187469 0.126564 0.001240
v -0.185573 0.136382 0.011240
v -0.512860 0.199585 0.001240
vn 0.160082 0.987104 -0.000000
vn -0.029443 0.005686 -0.999550
vn -0.029443 0.005686 -0.999550
vn 0.160082 0.987104 0.000000
vn -0.218967 -0.975732 -0.000000
vn -0.218967 -0.975732 -0.000000
vn -0.029443 0.005686 0.999550
vn -0.029443 0.005686 0.999550
vn -0.029443 0.005686 -0.999550
vn 0.160082 0.987104 0.000000
vn -0.218967 -0.975732 -0.000000
vn -0.029443 0.005686 0.999550
vn 0.981860 -0.189609 -0.000000
vn 0.981860 -0.189609 -0.000000
vn 0.981860 -0.189609 -0.000000
vn 0.981860 -0.189609 -0.000000
vn 0.113220 0.698145 -0.706948
vn -0.154868 -0.690102 -0.706948
vn -0.154868 -0.690102 0.706948
vn 0.113220 0.698145 0.706948
f 79//121 80//122 84//123 83//124
f 80//122 81//125 85//126 84//123
f 81//125 82//127 86//128 85//126
f 82//127 79//121 83//124 86//128
f 83//124 84//123 88//129 87//130
f 84//123 85//126 89//131 88//129
f 85//126 86//128 90//132 89//131
f 86//128 83//124 87//130 90//132
f 79//133 82//134 81//135 80//136
f 87//130 88//129 91//137
f 88//129 89//131 91//138
f 89//131 90//132 91//139
f 90//132 87//130 91//140
v 0.469150 0.028530 0.001240
v 0.468489 -0.001463 -0.028760
v 0.467829 -0.031456 0.001240
v 0.468489 -0.001463 0.031240
v 0.135677 0.025869 0.001240
v 0.135237 0.005874 -0.018760
v 0.134797 -0.014121 0.001240
v 0.135237 0.005874 0.021240
v -0.197796 0.023208 0.001240
v -0.198016 0.013211 -0.008760
v -0.198236 0.003213 0.001240
v -0.198016 0.013211 0.011240
v -0.531268 0.020547 0.001240
vn -0.007979 0.999968 -0.000000
vn -0.029979 0.000660 -0.999550
vn -0.029979 0.000660 -0.999550
vn -0.007979 0.999968 0.000000
vn -0.051980 -0.998648 -0.000000
vn -0.051980 -0.998648 -0.000000
vn -0.029979 0.000660 0.999550
vn -0.029979 0.000660 0.999550
vn -0.029979 0.000660 -0.999550
vn -0.007979 0.999968 0.000000
vn -0.051980 -0.998648 -0.000000
vn -0.029979 0.000660 0.999550
vn 0.999758 -0.022010 -0.000000
vn 0.999758 -0.022010 -0.000000
vn 0.999758 -0.022010 -0.000000
vn 0.999758 -0.022010 -0.000000
vn -0.005643 0.707243 -0.706948
vn -0.036763 -0.706310 -0.706948
vn -0.036763 -0.706310 0.706948
vn -0.005643 0.707243 0.706948
f 92//141 93//142 97//143 96//144
f 93//142 94//145 98//146 97//143
f 94//145 95//147 99//148 98//146
f 95//147 92//141 96//144 99//148
f 96//144 97//143 101//149 100//150
f 97//143 98//146 102//151 101//149
f 98//146 99//148 103//152 102//151
f 99//148 96//144 100//150 103//152
f 92//153 95//154 94//155 93//156
f 100//150 101//149 104//157
f 101//149 102//151 104//158
f 102//151 103//152 104//159
f 103//152 100//150 104//160
v 0.475167 0.029776 0.001240
v 0.479698 0.000120 -0.028760
v 0.484229 -0.029536 0.001240
v 0.479698 0.000120 0.031240
v 0.147168 -0.030452 0.001240
v 0.150188 -0.050223 -0.018760
v 0.153209 -0.069993 0.001240
v 0.150188 -0.050223 0.021240
v -0.180832 -0.090680 0.001240
v -0.179321 -0.100565 -0.008760
v -0.177811 -0.110450 0.001240
v -0.179321 -0.100565 0.011240
v -0.508831 -0.150908 0.001240
vn -0.180602 0.983556 -0.000000
vn -0.029643 -0.004529 -0.999550
vn -0.029643 -0.004529 -0.999550
vn -0.180602 0.983556 0.000000
vn 0.121317 -0.992614 -0.000000
vn 0.121317 -0.992614 -0.000000
vn -0.029643 -0.004529 0.999550
vn -0.029643 -0.004529 0.999550
vn -0.029643 -0.004529 -0.999550
vn -0.180602 0.983556 0.000000
vn 0.121317 -0.992614 -0.000000
vn -0.029643 -0.004529 0.999550
vn 0.988530 0.151028 -0.000000
vn 0.988530 0.151028 -0.000000
vn 0.988530 0.151028 -0.000000
vn 0.988530 0.151028 -0.000000
vn -0.127734 0.695636 -0.706948
vn 0.085803 -0.702042 -0.706948
vn 0.085803 -0.702042 0.706948
vn -0.127734 0.695636 0.706948
f 105//161 106//162 110//163 109//164
f 106//162 107//165 111//166 110//163
f 107//165 108//167 112//168 111//166
f 108//167 105//161 109//164 112//168
f 109//164 110//163 114//169 113//170
f 110//163 111//166 115//171 114//169
f 111//166 112//168 116//172 115//171
f 112//168 109//164 113//170 116//172
f 105//173 108//174 107//175 106//176
f 113//170 114//169 117//177
f 114//169 115//171 117//178
f 115//171 116//172 117//179
f 116//172 113//170 117//180
v 0.423081 0.043362 0.001240
v 0.436078 0.016323 -0.028760
v 0.449074 -0.010716 0.001240
v 0.436078 0.016323 0.031240
v 0.126984 -0.110058 0.001240
v 0.135648 -0.128084 -0.018760
v 0.144313 -0.146110 0.001240
v 0.135648 -0.128084 0.021240
v -0.169113 -0.263478 0.001240
v -0.164781 -0.272491 -0.008760
v -0.160449 -0.281503 0.001240
v -0.164781 -0.272491 0.011240
v -0.465210 -0.416897 0.001240
vn -0.460052 0.887892 -0.000000
vn -0.027027 -0.012991 -0.999550
vn -0.027027 -0.012991 -0.999550
vn -0.460052 0.887892 0.000000
vn 0.405999 -0.913873 -0.000000
vn 0.405999 -0.913873 -0.000000
vn -0.027026 -0.012991 0.999550
vn -0.027026 -0.012991 0.999550
vn -0.027027 -0.012991 -0.999550
vn -0.460052 0.887892 0.000000
vn 0.405999 -0.913873 -0.000000
vn -0.027026 -0.012991 0.999550
vn 0.901288 0.433220 -0.000000
vn 0.901288 0.433220 -0.000000
vn 0.901288 0.433220 -0.000000
vn 0.901288 0.433220 -0.000000
vn -0.325379 0.627976 -0.706948
vn 0.287149 -0.646351 -0.706948
vn 0.287149 -0.646351 0.706948
vn -0.325379 0.627976 0.706948
f 118//181 119//182 123//183 122//184
f 119//182 120//185 124//186 123//183
f 120//185 121//187 125//188 124//186
f 121//187 118//181 122//184 125//188
f 122//184 123//183 127//189 126//190
f 123//183 124//186 128//191 127//189
f 124//186 125//188 129//192 128//191
f 125//188 122//184 126//190 129//192
f 118//193 121//194 120//195 119//196
f 126//190 127//189 130//197
f 127//189 128//191 130//198
f 128//191 129//192 130//199
f 129//192 126//190 130//200
